#tb 0: 1/25
0,          0,          0,        1,   152064, 0x0c09883a
0,          1,          1,        1,   152064, 0xfc2748a0
0,          2,          2,        1,   152064, 0xb746eea8
0,          3,          3,        1,   152064, 0xf14192d7
0,          4,          4,        1,   152064, 0xae26db7f
0,          5,          5,        1,   152064, 0xe1a7da48
0,          6,          6,        1,   152064, 0x5196b387
0,          7,          7,        1,   152064, 0x20eac7ff
0,          8,          8,        1,   152064, 0x4896c7f5
0,          9,          9,        1,   152064, 0x97ba6468
0,         10,         10,        1,   152064, 0x29b19884
0,         11,         11,        1,   152064, 0x591e4e14
0,         12,         12,        1,   152064, 0xb692fc98
0,         13,         13,        1,   152064, 0x3457ed57
0,         14,         14,        1,   152064, 0xbb10d71d
0,         15,         15,        1,   152064, 0x47f45b57
0,         16,         16,        1,   152064, 0xddbd8bc6
0,         17,         17,        1,   152064, 0x1ef36e02
0,         18,         18,        1,   152064, 0x55a363d2
0,         19,         19,        1,   152064, 0x11c1c2f4
0,         20,         20,        1,   152064, 0x553bdc2b
0,         21,         21,        1,   152064, 0x2101d886
0,         22,         22,        1,   152064, 0xe8f77998
0,         23,         23,        1,   152064, 0x39bac7ff
0,         24,         24,        1,   152064, 0x09a4172e
0,         25,         25,        1,   152064, 0x6121f57f
0,         26,         26,        1,   152064, 0x60e7525c
0,         27,         27,        1,   152064, 0xd7895259
0,         28,         28,        1,   152064, 0x12b2153b
0,         29,         29,        1,   152064, 0x6119a22e
0,         30,         30,        1,   152064, 0xf1969bd5
0,         31,         31,        1,   152064, 0x7b03fc83
0,         32,         32,        1,   152064, 0x17383667
0,         33,         33,        1,   152064, 0x332bbfba
0,         34,         34,        1,   152064, 0x253998a8
0,         35,         35,        1,   152064, 0x2614c984
0,         36,         36,        1,   152064, 0x50c86e8d
0,         37,         37,        1,   152064, 0x9ff23b55
0,         38,         38,        1,   152064, 0xc4589665
0,         39,         39,        1,   152064, 0x5e7d86c7
0,         40,         40,        1,   152064, 0xdda07f2f
0,         41,         41,        1,   152064, 0xa1dacf4a
0,         42,         42,        1,   152064, 0x3c83fb32
0,         43,         43,        1,   152064, 0xa43da916
0,         44,         44,        1,   152064, 0x0e767b80
0,         45,         45,        1,   152064, 0xa18c5f82
0,         46,         46,        1,   152064, 0xdb21c249
0,         47,         47,        1,   152064, 0xb126341e
0,         48,         48,        1,   152064, 0xc14742be
0,         49,         49,        1,   152064, 0x582f631d
